# xmcd
#
# Track frame offsets:
# 150
# 17750
# 32862
# 49162
# 66900
# 82005
# 98475
# 116030
# 132225
# 147815
# 161692
# 175120
# 191090
# 208321
# 225580
#
# Disc length: 3229 seconds
#
#
# Revision: 0
# Processed by: cddbd v1.5.1PL2 Copyright (c) Steve Scherf et al.
# Submitted via: FreeRIP 2.944 
#
DISCID=d30c9b0f
DTITLE=Bruno E Marrone - Meu Presente É Você
DYEAR=2005
DGENRE=Sertanejo
TTITLE0=Choram As Rosas
TTITLE1=Cuida Do Nosso Amor
TTITLE2=Quer Casar Comigo?
TTITLE3=Por Um Gole A Mais
TTITLE4=Faz Mais, Faz
TTITLE5=Por Que Choras?
TTITLE6=Por Te Amar Demais
TTITLE7=Vai Sofrer Pra Lá
TTITLE8=Que Pescar Que Nada
TTITLE9=Não Tem Outro Jeito
TTITLE10=A Culpa É Sua (Conselho)
TTITLE11=Raridade
TTITLE12=Meu Presente É Você
TTITLE13=Uma Grande Mentira
TTITLE14=Se Não For Por Amor
EXTD=
EXTT0=
EXTT1=
EXTT2=
EXTT3=
EXTT4=
EXTT5=
EXTT6=
EXTT7=
EXTT8=
EXTT9=
EXTT10=
EXTT11=
EXTT12=
EXTT13=
EXTT14=
PLAYORDER=
